<?xml version="1.0" encoding="iso-8859-1"?>
<!-- Generator: Adobe Illustrator 16.0.0, SVG Export Plug-In . SVG Version: 6.00 Build 0)  -->
<!DOCTYPE svg PUBLIC "-//W3C//DTD SVG 1.1//EN" "http://www.w3.org/Graphics/SVG/1.1/DTD/svg11.dtd">
<svg version="1.1" id="Capa_1" xmlns="http://www.w3.org/2000/svg" xmlns:xlink="http://www.w3.org/1999/xlink" x="0px" y="0px"
	 width="466.145px" height="466.145px" viewBox="0 0 466.145 466.145" style="enable-background:new 0 0 466.145 466.145;"
	 xml:space="preserve">
<g>
	<g>
		<path d="M293.094,213.681l-52.521,11.791v-61.727c-4.906,1.163-10.103,1.136-15-0.024v61.751l-61.205-13.741
			c-0.085,2.543-0.455,5.064-1.13,7.506l9.808,9.815l47.862,10.746l-8.563,13.178c4.984,1.332,9.496,3.826,13.225,7.181
			l7.503-11.548l30.146,46.391l22.853,11.557c0.611-0.373,1.24-0.707,1.873-1.039L245.236,239.8l53.172-11.938
			C295.562,223.663,293.719,218.815,293.094,213.681z"/>
		<path d="M233.072,11.407L0,180.744l89.025,273.993h288.092l89.027-273.993L233.072,11.407z M358.686,414.38l-35.787-55.072
			c-3.938,3.137-8.617,5.375-13.734,6.396l38.363,59.035H118.616l72.259-111.194c-4.663-2.095-8.742-5.261-11.918-9.189
			l-71.5,110.026L37.341,198.585l62.65,14.065c-0.04-0.659-0.067-1.322-0.067-1.992c0-4.547,0.951-8.873,2.656-12.8l-57.369-12.88
			L225.572,53.939v47.106c2.408-0.576,4.918-0.89,7.5-0.89c2.583,0,5.092,0.313,7.5,0.89V53.939l180.361,131.04l-65.254,14.65
			c1.064,3.196,1.648,6.61,1.648,10.159c0,1.671-0.131,3.317-0.383,4.93l71.855-16.133L358.686,414.38z"/>
		<path d="M324.621,187.649c-4.266,0-8.254,1.21-11.643,3.301l-59.719-50.228c1.018-2.546,1.584-5.32,1.584-8.227
			c0-12.263-9.977-22.24-22.241-22.24c-12.263,0-22.239,9.978-22.239,22.24c0,2.67,0.474,5.23,1.34,7.604l-66.771,52.799
			c-3.701-2.75-8.281-4.38-13.236-4.38c-12.264,0-22.24,9.978-22.24,22.24c0,12.264,9.977,22.24,22.24,22.24
			c3.173,0,6.19-0.673,8.924-1.875l43.081,43.127c-1.515,3.003-2.374,6.392-2.374,9.979c0,12.264,9.977,22.24,22.24,22.24
			c6.106,0,11.646-2.476,15.669-6.475l61.149,30.919c-0.161,1.071-0.244,2.165-0.244,3.279c0,12.264,9.978,22.239,22.239,22.239
			c12.264,0,22.24-9.977,22.24-22.239c0-8.425-4.709-15.771-11.633-19.543l14.807-82.753c10.766-1.545,19.066-10.824,19.066-22.01
			C346.861,197.625,336.885,187.649,324.621,187.649z M299.207,312.185c-4.84,0.695-9.182,2.951-12.494,6.244l-61.149-30.92
			c0.159-1.07,0.243-2.166,0.243-3.278c0-12.265-9.976-22.24-22.239-22.24c-3.58,0-6.964,0.854-9.964,2.365l-42.575-42.622
			c1.848-3.24,2.908-6.985,2.908-10.975c0-2.221-0.331-4.364-0.939-6.39l67.398-53.296c3.507,2.313,7.702,3.663,12.207,3.663
			c4.266,0,8.254-1.21,11.643-3.301l59.719,50.227c-1.018,2.547-1.584,5.321-1.584,8.228c0,8.424,4.709,15.77,11.635,19.543
			L299.207,312.185z"/>
	</g>
</g>
<g>
</g>
<g>
</g>
<g>
</g>
<g>
</g>
<g>
</g>
<g>
</g>
<g>
</g>
<g>
</g>
<g>
</g>
<g>
</g>
<g>
</g>
<g>
</g>
<g>
</g>
<g>
</g>
<g>
</g>
</svg>
